<svg width="24" height="24" viewBox="0 0 24 24" fill="currentColor" xmlns="http://www.w3.org/2000/svg">
<path d="M15.2006 18.9415C15.2006 19.158 15.4228 19.3025 15.616 19.205C18.2145 17.8935 20 15.3102 20 12.2004C20 9.09051 18.2145 6.50721 15.616 5.19576C15.4228 5.09822 15.2006 5.24271 15.2006 5.45917V6.42737C15.2006 6.53428 15.2578 6.63264 15.3487 6.6889C17.1766 7.82013 18.3999 9.89945 18.3999 12.2004C18.3999 14.5013 17.1766 16.5806 15.3487 17.7118C15.2578 17.7681 15.2006 17.8664 15.2006 17.9734V18.9415Z" />
<path d="M15.6535 8.6959C15.4961 8.4895 15.2006 8.61318 15.2006 8.87275V15.528C15.2006 15.7875 15.4961 15.9112 15.6535 15.7048C16.3677 14.7683 16.8006 13.3843 16.8006 12.2004C16.8006 11.0164 16.3677 9.63239 15.6535 8.6959ZM5.60008 16.2006H7.75779L12.3564 19.2663C12.477 19.3464 12.6171 19.3924 12.7617 19.3995C12.9064 19.4065 13.0502 19.3743 13.1781 19.3063C13.3057 19.238 13.4125 19.1362 13.4869 19.0119C13.5613 18.8877 13.6005 18.7455 13.6005 18.6007V5.80004C13.6004 5.65533 13.5611 5.51334 13.4867 5.38921C13.4123 5.26508 13.3056 5.16345 13.1781 5.09514C13.0505 5.02683 12.9068 4.99441 12.7622 5.00133C12.6177 5.00824 12.4777 5.05423 12.3572 5.13441L7.75779 8.20016H5.60008C4.71764 8.20016 4 8.9178 4 9.80024V14.6005C4 15.4829 4.71764 16.2006 5.60008 16.2006ZM5.60008 9.80024H8.0002C8.0266 9.80024 8.049 9.78744 8.0746 9.78504C8.18102 9.77419 8.28429 9.74266 8.37862 9.69223C8.39942 9.68023 8.42422 9.67863 8.44422 9.66583L12.0004 7.29451V17.1062L8.44422 14.7349C8.42422 14.7213 8.39942 14.7189 8.37862 14.7085C8.28414 14.657 8.18014 14.6255 8.073 14.6157C8.0474 14.6133 8.0258 14.6005 8.0002 14.6005H5.60008V9.80024Z" />
</svg>
