<svg width="24" height="24" viewBox="0 0 24 24" fill="currentColor" xmlns="http://www.w3.org/2000/svg">
<path d="M7 11.75C7 11.3358 7.33579 11 7.75 11H8.25C8.66421 11 9 11.3358 9 11.75V12.25C9 12.6642 8.66421 13 8.25 13H7.75C7.33579 13 7 12.6642 7 12.25V11.75ZM7 15.75C7 15.3358 7.33579 15 7.75 15H8.25C8.66421 15 9 15.3358 9 15.75V16.25C9 16.6642 8.66421 17 8.25 17H7.75C7.33579 17 7 16.6642 7 16.25V15.75ZM11 11.75C11 11.3358 11.3358 11 11.75 11H12.25C12.6642 11 13 11.3358 13 11.75V12.25C13 12.6642 12.6642 13 12.25 13H11.75C11.3358 13 11 12.6642 11 12.25V11.75ZM11 15.75C11 15.3358 11.3358 15 11.75 15H12.25C12.6642 15 13 15.3358 13 15.75V16.25C13 16.6642 12.6642 17 12.25 17H11.75C11.3358 17 11 16.6642 11 16.25V15.75ZM15 11.75C15 11.3358 15.3358 11 15.75 11H16.25C16.6642 11 17 11.3358 17 11.75V12.25C17 12.6642 16.6642 13 16.25 13H15.75C15.3358 13 15 12.6642 15 12.25V11.75ZM15 15.75C15 15.3358 15.3358 15 15.75 15H16.25C16.6642 15 17 15.3358 17 15.75V16.25C17 16.6642 16.6642 17 16.25 17H15.75C15.3358 17 15 16.6642 15 16.25V15.75Z" />
<path d="M5 22H19C20.103 22 21 21.103 21 20V6C21 4.897 20.103 4 19 4H17V3C17 2.44772 16.5523 2 16 2C15.4477 2 15 2.44772 15 3V4H9V3C9 2.44772 8.55228 2 8 2C7.44772 2 7 2.44772 7 3V4H5C3.897 4 3 4.897 3 6V20C3 21.103 3.897 22 5 22ZM19 8L19.001 20H5V8H19Z" />
</svg>
