<svg width="24" height="24" viewBox="0 0 24 24" fill="currentColor" xmlns="http://www.w3.org/2000/svg">
<path d="M5 12C5 10.35 6.35 9 8 9C9.65 9 11 10.35 11 12C11 13.65 9.65 15 8 15C6.35 15 5 13.65 5 12Z" />
<path d="M5 3C5 1.35 6.35 0 8 0C9.65 0 11 1.35 11 3C11 4.65 9.65 6 8 6C6.35 6 5 4.65 5 3Z" />
<path d="M5 21C5 19.35 6.35 18 8 18C9.65 18 11 19.35 11 21C11 22.65 9.65 24 8 24C6.35 24 5 22.65 5 21Z" />
<path d="M14 12C14 10.35 15.35 9 17 9C18.65 9 20 10.35 20 12C20 13.65 18.65 15 17 15C15.35 15 14 13.65 14 12Z" />
<path d="M14 3C14 1.35 15.35 0 17 0C18.65 0 20 1.35 20 3C20 4.65 18.65 6 17 6C15.35 6 14 4.65 14 3Z" />
<path d="M14 21C14 19.35 15.35 18 17 18C18.65 18 20 19.35 20 21C20 22.65 18.65 24 17 24C15.35 24 14 22.65 14 21Z" />
</svg>
