<svg width="24" height="24" viewBox="0 0 24 24" fill="currentColor" xmlns="http://www.w3.org/2000/svg">
<path d="M7 5C6.44772 5 6 5.44772 6 6V18C6 18.5523 6.44772 19 7 19H8C8.55228 19 9 18.5523 9 18V13H15V18C15 18.5523 15.4477 19 16 19H17C17.5523 19 18 18.5523 18 18V6C18 5.44772 17.5523 5 17 5H16C15.4477 5 15 5.44772 15 6V11H9V6C9 5.44772 8.55228 5 8 5H7ZM3 15C3 15.2652 3.10536 15.5196 3.29289 15.7071C3.48043 15.8946 3.73478 16 4 16C4.55228 16 5 15.5523 5 15V9C5 8.44772 4.55228 8 4 8C3.73478 8 3.48043 8.10536 3.29289 8.29289C3.10536 8.48043 3 8.73478 3 9V11C2.44772 11 2 11.4477 2 12C2 12.5523 2.44772 13 3 13V15ZM21 9C21 8.73478 20.8946 8.48043 20.7071 8.29289C20.5196 8.10536 20.2652 8 20 8C19.4477 8 19 8.44772 19 9V15C19 15.5523 19.4477 16 20 16C20.2652 16 20.5196 15.8946 20.7071 15.7071C20.8946 15.5196 21 15.2652 21 15V13C21.5523 13 22 12.5523 22 12C22 11.4477 21.5523 11 21 11V9Z" />
</svg>
