<svg width="24" height="24" viewBox="0 0 24 24" fill="currentColor" xmlns="http://www.w3.org/2000/svg">
<path d="M19.5542 19.0528C19.6714 18.9357 19.6714 18.7457 19.5542 18.6286L18.1479 17.2222C19.3483 15.8272 20.0058 14.0464 20 12.206C20 9.09613 18.2145 6.51283 15.616 5.20139C15.4227 5.10385 15.2005 5.24834 15.2005 5.4648V6.43299C15.2005 6.53991 15.2578 6.63826 15.3487 6.69453C17.1766 7.82576 18.3999 9.90507 18.3999 12.206C18.3964 13.6273 17.9264 15.0082 17.0622 16.1366L16.0342 15.1085C16.5158 14.2349 16.8006 13.158 16.8006 12.206C16.8006 11.022 16.3677 9.63801 15.6535 8.70152C15.4961 8.49513 15.2005 8.6188 15.2005 8.87837V14.2749L13.6005 12.6748V5.80567C13.6004 5.66095 13.5611 5.51897 13.4867 5.39484C13.4123 5.2707 13.3056 5.16907 13.178 5.10077C13.0505 5.03246 12.9067 5.00004 12.7622 5.00696C12.6176 5.01387 12.4777 5.05986 12.3572 5.14004L8.58182 7.65616L5.5778 4.65213C5.46064 4.53498 5.27069 4.53498 5.15353 4.65213L4.44654 5.35912C4.32939 5.47628 4.32939 5.66623 4.44654 5.78339L18.423 19.7598C18.5401 19.877 18.7301 19.877 18.8472 19.7598L19.5542 19.0528ZM12.0004 7.30014V11.0747L9.73547 8.80981L12.0004 7.30014ZM5.60008 16.2062H7.75778L12.3564 19.2719C12.477 19.352 12.6171 19.398 12.7617 19.4051C12.9063 19.4121 13.0502 19.3799 13.178 19.3119C13.3057 19.2435 13.4125 19.1418 13.4869 19.0175C13.5613 18.8933 13.6005 18.7511 13.6005 18.6063V17.103L12.0004 15.5029V17.1118L8.44421 14.7405C8.42421 14.7269 8.39941 14.7245 8.37861 14.7141C8.28413 14.6626 8.18013 14.6311 8.07299 14.6213C8.04739 14.6189 8.02579 14.6061 8.00019 14.6061H5.60008V9.80586H6.30331L4.88164 8.38419C4.61754 8.51639 4.3953 8.71927 4.23965 8.97027C4.08399 9.22126 4.00103 9.51052 4 9.80586V14.6061C4 15.4885 4.71763 16.2062 5.60008 16.2062Z" />
</svg>
