<svg width="24" height="24" viewBox="0 0 24 24" fill="currentColor" xmlns="http://www.w3.org/2000/svg">
<path fill-rule="evenodd" clip-rule="evenodd" d="M18.3335 12.0005C18.334 13.375 17.8624 14.7081 16.9978 15.7767C16.1332 16.8453 14.9279 17.5846 13.5834 17.8709C12.239 18.1573 10.837 17.9734 9.612 17.3499C8.67591 16.8735 7.88651 16.1626 7.31645 15.2935C7.02069 14.8427 6.45308 14.6084 5.9535 14.8113C5.43249 15.023 5.17918 15.6283 5.46818 16.1107C6.22929 17.3812 7.3321 18.4217 8.65981 19.1075C10.2929 19.9511 12.1666 20.2067 13.9659 19.8314C15.7653 19.4561 17.3806 18.4727 18.5402 17.0466C19.6998 15.6204 20.3331 13.8385 20.3335 12.0005C20.3336 10.3308 19.8112 8.70286 18.8396 7.34494C17.8681 5.98702 16.496 4.96712 14.9156 4.42819C13.3353 3.88925 11.6259 3.8583 10.0271 4.33965C8.42827 4.82101 7.02013 5.79055 6.00002 7.11241V5.66705C6.00002 5.11476 5.5523 4.66705 5.00001 4.66705C4.44773 4.66705 4 5.11476 4 5.66705V9.29332C4 9.74608 4.17986 10.1803 4.50001 10.5004C4.82015 10.8206 5.25437 11.0004 5.70713 11.0004H8.66673C9.21901 11.0004 9.66673 10.5527 9.66673 10.0004C9.66673 9.44815 9.21901 9.00043 8.66673 9.00043H7.13603C7.79618 7.85598 8.81561 6.96142 10.0361 6.45556C11.2567 5.9497 12.61 5.86084 13.8862 6.20275C15.1624 6.54467 16.29 7.29825 17.0942 8.34655C17.8983 9.39486 18.3339 10.6793 18.3335 12.0005Z" />
</svg>
