<svg width="24" height="24" viewBox="0 0 24 24" fill="currentColor" xmlns="http://www.w3.org/2000/svg">
<path d="M17 6C18.1046 6 19 5.10457 19 4C19 2.89543 18.1046 2 17 2C15.8954 2 15 2.89543 15 4C15 5.10457 15.8954 6 17 6Z" />
<path d="M15.777 10.969C16.0066 11.3111 16.3358 11.5742 16.7201 11.7227C17.1044 11.8712 17.5251 11.8978 17.925 11.799L20.2722 11.2122C20.8074 11.0784 21.133 10.5363 20.9997 10.0009C20.8663 9.46486 20.3232 9.13869 19.7873 9.27268L17.442 9.859L16.063 7.792C15.7684 7.35056 15.3111 7.04357 14.791 6.938L10.945 6.168C10.5147 6.08165 10.068 6.13936 9.67383 6.3322C9.27964 6.52505 8.9599 6.84232 8.764 7.235L7.55311 9.65677C7.30616 10.1507 7.5064 10.7513 8.00025 10.9984C8.49429 11.2455 9.09527 11.0453 9.34226 10.5512L10.553 8.129L12.52 8.523L7.434 17H4C3.44771 17 3 17.4477 3 18C3 18.5523 3.44772 19 4 19H7.434C8.132 19 8.789 18.628 9.149 18.029L11.067 14.833L16.236 15.867L17.7358 20.3673C17.9104 20.8912 18.4768 21.1742 19.0006 20.9993C19.5239 20.8246 19.8067 20.2588 19.6323 19.7354L18.133 15.235C18.021 14.9005 17.8228 14.6015 17.5584 14.368C17.294 14.1345 16.9728 13.9748 16.627 13.905L13.588 13.298L15.36 10.344L15.777 10.969Z" />
</svg>
