<svg width="24" height="24" viewBox="0 0 24 24" fill="currentColor" xmlns="http://www.w3.org/2000/svg">
<path fill-rule="evenodd" clip-rule="evenodd" d="M17.7809 6.219C17.8507 6.28867 17.9061 6.37143 17.9439 6.46255C17.9817 6.55367 18.0012 6.65135 18.0012 6.75C18.0012 6.84865 17.9817 6.94633 17.9439 7.03745C17.9061 7.12857 17.8507 7.21133 17.7809 7.281L7.28087 17.781C7.14004 17.9218 6.94903 18.0009 6.74987 18.0009C6.5507 18.0009 6.3597 17.9218 6.21887 17.781C6.07804 17.6402 5.99892 17.4492 5.99892 17.25C5.99892 17.0508 6.07804 16.8598 6.21887 16.719L16.7189 6.219C16.7885 6.14915 16.8713 6.09374 16.9624 6.05593C17.0535 6.01812 17.1512 5.99866 17.2499 5.99866C17.3485 5.99866 17.4462 6.01812 17.5373 6.05593C17.6284 6.09374 17.7112 6.14915 17.7809 6.219Z" />
<path fill-rule="evenodd" clip-rule="evenodd" d="M6.219 6.219C6.14915 6.28867 6.09374 6.37143 6.05593 6.46255C6.01812 6.55367 5.99866 6.65135 5.99866 6.75C5.99866 6.84865 6.01812 6.94633 6.05593 7.03745C6.09374 7.12857 6.14915 7.21133 6.219 7.281L16.719 17.781C16.8598 17.9218 17.0508 18.0009 17.25 18.0009C17.4492 18.0009 17.6402 17.9218 17.781 17.781C17.9218 17.6402 18.0009 17.4492 18.0009 17.25C18.0009 17.0508 17.9218 16.8598 17.781 16.719L7.281 6.219C7.21133 6.14915 7.12857 6.09374 7.03745 6.05593C6.94633 6.01812 6.84865 5.99866 6.75 5.99866C6.65135 5.99866 6.55367 6.01812 6.46255 6.05593C6.37143 6.09374 6.28867 6.14915 6.219 6.219Z" />
</svg>
